<svg width="414" height="154" viewBox="0 0 414 154" fill="none" xmlns="http://www.w3.org/2000/svg">
<path d="M523.184 106.649C506.404 111.235 490.423 114.844 475.25 117.639H475.245C450.501 122.195 427.914 124.601 407.551 125.569C382.638 126.761 361.059 125.814 342.952 124.054C341.553 123.915 340.173 123.777 338.819 123.634C326.34 122.298 315.73 120.614 306.235 118.981C300.455 117.987 295.083 117.015 289.956 116.145C268.55 112.52 251.312 110.77 225.756 117.399C205.828 122.569 204.834 125.062 184.569 130.56C184.542 130.57 184.511 130.575 184.484 130.58C153.734 138.914 142.56 135.525 138.303 133.78C127.582 129.388 124.097 126.613 124.097 126.613C120.484 123.736 117.834 120.567 112.609 118.929C112.129 118.781 111.619 118.638 111.108 118.51C109.257 118.049 107.37 117.742 106.704 117.629C104.232 117.22 101.608 116.959 98.7937 116.887C79.0746 116.375 64.5494 125.507 59.7284 128.149C58.2413 128.963 56.6431 129.725 54.9207 130.416C50.8721 132.049 46.1444 133.299 40.5864 133.944C40.0937 134 39.5965 134.056 39.0904 134.102C16.6013 136.232 -18.9703 128.748 -77 98.4583L-69.8972 -68.9346L107.672 -103.232L511.642 -80.7084C515.491 -18.256 519.336 44.1964 523.184 106.649Z" fill="#FFF5E6"/>
<path d="M123.209 90.7797C122.93 92.4639 122.255 96.2111 120.768 101.018C119.907 103.792 118.775 106.92 117.292 110.201C116.013 113.037 114.469 115.986 112.609 118.929C109.181 124.35 104.685 129.736 98.7936 134.292C95.2822 137.01 73.1349 154.143 50.8499 141.97C47.0766 139.907 43.6362 137.194 40.5864 133.944C37.4212 130.575 34.6822 126.634 32.4315 122.262C27.211 112.126 24.6318 99.6818 25.5463 86.6845L114.411 90.4112L123.209 90.7797Z" fill="#FFF5E6"/>
<path opacity="0.69" d="M185.581 128.917C167.979 136.764 153.836 136.565 145.628 135.571C131.764 133.892 111.889 127.156 111.889 119.702C111.889 117.532 113.572 115.75 114.997 114.583C126.601 122.994 136.66 126.091 143.408 127.381C148.935 128.435 154.044 128.594 164.272 128.917C173.089 129.193 180.418 129.08 185.581 128.917Z" fill="#FFDDAB"/>
<path d="M316.316 105.113C311.983 112.06 307.131 118.32 301.871 123.849C276.647 150.396 242.163 160.163 211.994 148.625C194.064 141.765 181.328 128.784 172.605 116.124C162.177 100.987 157.485 86.3057 156.504 83.1012L316.316 105.113Z" fill="#FFF5E6"/>
<path d="M271.924 56.4821C271.178 60.6439 267.134 85.2358 280.802 105.625C293.263 124.217 318.949 137.076 338.956 123.542C352.776 114.194 360.389 94.6242 358.933 73.8869" fill="#FFF5E6"/>
<path d="M201.784 80.5417C199.702 88.553 196.106 95.7248 191.418 101.668C183.45 111.778 172.312 118.336 160.055 119.446C141.339 121.136 123.454 109.802 114.571 90.7593C114.335 90.2576 114.109 89.7559 113.887 89.244L201.784 80.5417Z" fill="#FFF5E6"/>
<path d="M403.769 81.0536C396.804 105.937 405.665 132.587 423.746 144.53C444.543 158.269 473.323 149.767 486.783 123.542" fill="#FFF5E6"/>
<path opacity="0.69" d="M117.292 110.201C116.013 113.037 114.469 115.986 112.609 118.929C109.182 124.35 104.685 129.736 98.7937 134.292C95.2823 137.01 73.1349 154.143 50.85 141.97C47.0766 139.907 43.6362 137.194 40.5865 133.944C40.0937 134 39.5965 134.056 39.0904 134.102C37.0706 131.405 35.2905 128.471 33.83 125.323C33.5236 124.658 32.8533 123.46 32.4316 122.262C32.0276 121.131 31.8456 119.999 32.3783 119.303C33.4571 117.895 37.0839 120.383 38.3047 121.008C43.583 123.69 48.4439 127.35 53.7887 129.874C54.1261 130.033 54.5035 130.217 54.9208 130.417C59.5997 132.669 69.2506 137.24 78.9903 135.633C83.6426 134.865 86.6213 132.966 92.5788 129.173C99.1044 125.016 103.459 120.941 106.704 117.629C111.552 112.679 113.909 109.439 117.292 110.201Z" fill="#FFDDAB"/>
<path opacity="0.69" d="M191.418 101.668C183.45 111.778 172.312 118.336 160.055 119.446C141.339 121.136 123.454 109.802 114.571 90.7593C116.861 89.2133 122.677 96.5848 124.634 98.4327C127.458 101.095 130.308 103.777 133.544 105.712C136.718 107.611 140.194 108.743 143.688 109.628C149.294 111.041 155.017 111.84 160.757 112.003C163.615 112.085 166.496 112.008 169.306 111.399C173.022 110.601 176.542 108.896 180.027 107.202C183.823 105.359 187.618 103.516 191.418 101.668Z" fill="#FFDDAB"/>
<path opacity="0.69" d="M301.871 123.849C276.647 150.396 242.163 160.163 211.994 148.625C194.064 141.765 181.328 128.784 172.605 116.124C172.987 114.727 173.59 113.15 174.483 113.048C175.721 112.904 176.578 115.704 178.478 118.679C180.023 121.095 181.874 122.682 185.581 125.845C187.441 127.432 190.779 130.099 195.44 132.751C201.327 136.099 206.414 138.018 210.76 139.022C229.414 143.337 238.741 145.497 246.62 144.53C258.779 143.04 269.291 137.988 271.48 136.851C271.617 136.78 273.247 135.93 275.475 134.804C280.003 132.51 282.267 131.364 284.527 130.386C285.783 129.843 286.573 129.741 287.87 129.055C288.433 128.758 289.774 128.005 291.678 126.357C294.999 123.485 295.03 122.206 296.562 121.75C297.623 121.433 299.309 121.54 301.871 123.849Z" fill="#FFDDAB"/>
<path opacity="0.69" d="M307.216 127.381C312.29 128.702 315.863 128.947 322.753 129.429C335.201 130.294 339.671 129.224 342.286 128.405C345.22 127.483 347.555 126.332 348.501 125.845C352.718 123.68 355.905 121.11 358.067 119.109C344.137 124.494 332.861 124.673 325.892 124.832C316.578 125.042 307.233 123.383 298.399 119.979C296.792 119.359 291.567 117.051 291.226 117.844C290.99 118.387 293.152 120.127 293.902 120.726C299.571 125.292 305.245 126.869 307.216 127.381Z" fill="#FFDDAB"/>
<path opacity="0.69" d="M406.406 125.753C399.499 131.865 393.017 134.123 389.342 135.06C387.988 135.408 366.861 140.404 352.94 124.821C350.023 121.555 348.208 118.264 347.169 116.119C363.163 123.659 370.506 125.84 373.804 125.845C373.804 125.845 373.804 125.845 376.912 125.845C377.214 125.845 385.79 125.845 385.79 125.845C388.871 125.845 394.664 125.825 406.406 125.753Z" fill="#FFDDAB"/>
<path opacity="0.69" d="M404.009 125.748C404.772 128.139 405.731 130.468 407.094 132.469C408.661 134.763 410.708 136.554 412.812 138.182C423.63 146.552 436.553 151.266 449.577 151.594C455.557 151.748 462.096 150.703 466.238 145.722C454.514 146.695 442.603 144.586 431.67 139.605C429.068 138.418 426.502 137.061 424.243 135.167C421.468 132.838 419.231 129.766 417.207 126.577C413.123 120.137 409.806 113.027 407.502 105.502C405.105 97.6597 405.216 89.843 403.805 81.9801C401.58 88.1434 401.572 97.2502 401.381 103.905C401.172 111.292 401.78 118.771 404.009 125.748Z" fill="#FFDDAB"/>
<path opacity="0.69" d="M43.5252 135.571C43.7916 135.172 44.0801 134.604 43.9691 134.036C43.4719 131.497 35.6678 131.927 27.1 131.476C18.5057 131.026 12.2597 129.859 4.45995 128.405C-1.35545 127.32 -7.51711 126.142 -15.2192 123.444C-23.485 120.547 -30.0906 117.097 -34.7296 114.363C-42.192 114.788 -43.8345 115.786 -43.9277 116.631C-44.1275 118.469 -37.149 120.987 -27.9465 124.31C-26.4638 124.847 -21.6738 126.557 -13.7409 128.917C-8.43603 130.493 -5.04001 131.507 -0.867134 132.5C11.0522 135.336 20.5211 135.94 23.1047 136.083C28.494 136.38 35.4369 136.421 43.5252 135.571Z" fill="#FFDDAB"/>
<path opacity="0.69" d="M285.61 92.8888C290.853 91.133 296.02 88.6553 300.153 84.5448C304.281 80.4342 307.278 74.4909 307.296 68.1996C302.071 67.9898 297.467 71.7676 292.921 74.7367C275.968 85.8194 254.331 86.7818 236.685 77.2347C232.21 74.8134 210.964 56.1136 206.6 59.3744C201.842 62.9321 218.6 78.2227 220.673 79.8915C239.251 94.8494 263.747 100.204 285.61 92.8888Z" fill="#FFDDAB"/>
<path opacity="0.69" d="M37.4657 35.8933C43.5119 32.955 49.4339 29.2335 53.8465 23.6332C58.2591 18.033 60.9892 10.2776 59.8083 2.83453C52.2661 7.73858 48.111 17.3931 41.7007 24.0991C33.4437 32.7349 22.0172 35.9599 10.9901 37.8437C-0.844894 39.8708 -13.0395 38.9648 -24.6791 40.7155C-8.36495 52.346 21.2536 43.7767 37.4657 35.8933Z" fill="#FFDDAB"/>
<path opacity="0.69" d="M76.1935 62.3742C83.7003 67.3499 89.9507 69.2132 98.372 70.3855C119.982 73.3853 139.417 66.8022 144.771 57.7056C145.463 56.5282 145.752 55.6017 145.49 54.8338C144.287 51.271 132.519 55.141 117.217 55.7143C114.269 55.8269 103.015 56.1187 90.1372 53.1548C83.0655 51.5269 73.6099 48.476 62.9735 42.3587C63.3109 50.8307 70.1784 58.3916 76.1935 62.3742Z" fill="#FFDDAB"/>
<path opacity="0.69" d="M378.039 44.3295C384.165 44.7544 390.434 44.9489 396.298 42.8757C402.162 40.8025 407.645 36.0674 409.576 29.3563C401.283 30.4262 394.686 30.3238 390.673 30.1191C373.232 29.2283 350.662 23.6537 314.647 13.5436C312.352 12.8986 306.821 11.3424 305.791 13.4361C305.129 14.7773 306.474 17.4801 310.075 21.7648C317.155 30.201 327.574 33.7894 337.118 36.9018C350.436 41.2479 364.247 43.3774 378.039 44.3295Z" fill="#FFDDAB"/>
</svg>
